<mxfile host="app.diagrams.net" modified="2023-10-11T15:32:27.410Z" agent="Mozilla/5.0 (Macintosh; Intel Mac OS X 10_15_7) AppleWebKit/537.36 (KHTML, like Gecko) Chrome/117.0.0.0 Safari/537.36" etag="AE2pK6rZ9EiMiOUOgtU8" version="22.0.4" type="device">
  <diagram name="Page-1" id="CO7KEho-Hl7rEbGbKwKy">
    <mxGraphModel dx="954" dy="585" grid="1" gridSize="10" guides="1" tooltips="1" connect="1" arrows="1" fold="1" page="1" pageScale="1" pageWidth="850" pageHeight="1100" math="0" shadow="0">
      <root>
        <mxCell id="0" />
        <mxCell id="1" parent="0" />
        <mxCell id="zWW6qGMwEGNfqiaWWx32-9" style="edgeStyle=orthogonalEdgeStyle;rounded=0;orthogonalLoop=1;jettySize=auto;html=1;exitX=0.5;exitY=1;exitDx=0;exitDy=0;entryX=0.5;entryY=0;entryDx=0;entryDy=0;" edge="1" parent="1" source="zWW6qGMwEGNfqiaWWx32-2" target="zWW6qGMwEGNfqiaWWx32-3">
          <mxGeometry relative="1" as="geometry" />
        </mxCell>
        <mxCell id="zWW6qGMwEGNfqiaWWx32-2" value="Opened" style="rounded=1;whiteSpace=wrap;html=1;" vertex="1" parent="1">
          <mxGeometry x="350" y="70" width="90" height="45" as="geometry" />
        </mxCell>
        <mxCell id="zWW6qGMwEGNfqiaWWx32-10" style="edgeStyle=orthogonalEdgeStyle;rounded=0;orthogonalLoop=1;jettySize=auto;html=1;exitX=0.5;exitY=1;exitDx=0;exitDy=0;entryX=0.5;entryY=0;entryDx=0;entryDy=0;" edge="1" parent="1" source="zWW6qGMwEGNfqiaWWx32-3" target="zWW6qGMwEGNfqiaWWx32-4">
          <mxGeometry relative="1" as="geometry" />
        </mxCell>
        <mxCell id="zWW6qGMwEGNfqiaWWx32-3" value="Bet Started" style="rounded=1;whiteSpace=wrap;html=1;" vertex="1" parent="1">
          <mxGeometry x="350" y="150" width="90" height="45" as="geometry" />
        </mxCell>
        <mxCell id="zWW6qGMwEGNfqiaWWx32-11" style="edgeStyle=orthogonalEdgeStyle;rounded=0;orthogonalLoop=1;jettySize=auto;html=1;exitX=0.5;exitY=1;exitDx=0;exitDy=0;entryX=0.5;entryY=0;entryDx=0;entryDy=0;" edge="1" parent="1" source="zWW6qGMwEGNfqiaWWx32-4" target="zWW6qGMwEGNfqiaWWx32-5">
          <mxGeometry relative="1" as="geometry" />
        </mxCell>
        <mxCell id="zWW6qGMwEGNfqiaWWx32-4" value="Bet Ended" style="rounded=1;whiteSpace=wrap;html=1;" vertex="1" parent="1">
          <mxGeometry x="350" y="240" width="90" height="45" as="geometry" />
        </mxCell>
        <mxCell id="zWW6qGMwEGNfqiaWWx32-12" style="edgeStyle=orthogonalEdgeStyle;rounded=0;orthogonalLoop=1;jettySize=auto;html=1;exitX=0.5;exitY=1;exitDx=0;exitDy=0;" edge="1" parent="1" source="zWW6qGMwEGNfqiaWWx32-5" target="zWW6qGMwEGNfqiaWWx32-6">
          <mxGeometry relative="1" as="geometry" />
        </mxCell>
        <mxCell id="zWW6qGMwEGNfqiaWWx32-5" value="Deal Started" style="rounded=1;whiteSpace=wrap;html=1;" vertex="1" parent="1">
          <mxGeometry x="350" y="330" width="90" height="45" as="geometry" />
        </mxCell>
        <mxCell id="zWW6qGMwEGNfqiaWWx32-28" style="edgeStyle=orthogonalEdgeStyle;rounded=0;orthogonalLoop=1;jettySize=auto;html=1;exitX=0.5;exitY=1;exitDx=0;exitDy=0;entryX=0.5;entryY=0;entryDx=0;entryDy=0;" edge="1" parent="1" source="zWW6qGMwEGNfqiaWWx32-6" target="zWW6qGMwEGNfqiaWWx32-26">
          <mxGeometry relative="1" as="geometry" />
        </mxCell>
        <mxCell id="zWW6qGMwEGNfqiaWWx32-6" value="Deal Endend" style="rounded=1;whiteSpace=wrap;html=1;" vertex="1" parent="1">
          <mxGeometry x="350" y="420" width="90" height="45" as="geometry" />
        </mxCell>
        <mxCell id="zWW6qGMwEGNfqiaWWx32-14" style="edgeStyle=orthogonalEdgeStyle;rounded=0;orthogonalLoop=1;jettySize=auto;html=1;exitX=0.5;exitY=1;exitDx=0;exitDy=0;entryX=0.5;entryY=0;entryDx=0;entryDy=0;" edge="1" parent="1" source="zWW6qGMwEGNfqiaWWx32-7" target="zWW6qGMwEGNfqiaWWx32-8">
          <mxGeometry relative="1" as="geometry" />
        </mxCell>
        <mxCell id="zWW6qGMwEGNfqiaWWx32-7" value="Resulted" style="rounded=1;whiteSpace=wrap;html=1;" vertex="1" parent="1">
          <mxGeometry x="350" y="710" width="90" height="45" as="geometry" />
        </mxCell>
        <mxCell id="zWW6qGMwEGNfqiaWWx32-8" value="Closed" style="rounded=1;whiteSpace=wrap;html=1;" vertex="1" parent="1">
          <mxGeometry x="350" y="820" width="90" height="45" as="geometry" />
        </mxCell>
        <mxCell id="zWW6qGMwEGNfqiaWWx32-18" style="edgeStyle=orthogonalEdgeStyle;rounded=0;orthogonalLoop=1;jettySize=auto;html=1;exitX=0;exitY=0;exitDx=80;exitDy=60;exitPerimeter=0;" edge="1" parent="1" source="zWW6qGMwEGNfqiaWWx32-16">
          <mxGeometry relative="1" as="geometry">
            <mxPoint x="400" y="130" as="targetPoint" />
          </mxGeometry>
        </mxCell>
        <mxCell id="zWW6qGMwEGNfqiaWWx32-16" value="after the first player bet, it changed to bet started" style="shape=note;whiteSpace=wrap;html=1;backgroundOutline=1;darkOpacity=0.05;" vertex="1" parent="1">
          <mxGeometry x="90" y="70" width="170" height="90" as="geometry" />
        </mxCell>
        <mxCell id="zWW6qGMwEGNfqiaWWx32-20" style="edgeStyle=orthogonalEdgeStyle;rounded=0;orthogonalLoop=1;jettySize=auto;html=1;exitX=0;exitY=0.5;exitDx=0;exitDy=0;exitPerimeter=0;" edge="1" parent="1" source="zWW6qGMwEGNfqiaWWx32-19">
          <mxGeometry relative="1" as="geometry">
            <mxPoint x="400" y="220" as="targetPoint" />
          </mxGeometry>
        </mxCell>
        <mxCell id="zWW6qGMwEGNfqiaWWx32-19" value="In this period, system can accept player bet. In single player mode, it can change to bet_ended in 0.5s, but in multiplayer mode, it should show the timer count down, after times up, it change to bet_ended" style="shape=note;whiteSpace=wrap;html=1;backgroundOutline=1;darkOpacity=0.05;" vertex="1" parent="1">
          <mxGeometry x="540" y="140" width="280" height="100" as="geometry" />
        </mxCell>
        <mxCell id="zWW6qGMwEGNfqiaWWx32-22" style="edgeStyle=orthogonalEdgeStyle;rounded=0;orthogonalLoop=1;jettySize=auto;html=1;exitX=0;exitY=0;exitDx=170;exitDy=65;exitPerimeter=0;" edge="1" parent="1" source="zWW6qGMwEGNfqiaWWx32-21">
          <mxGeometry relative="1" as="geometry">
            <mxPoint x="400" y="300" as="targetPoint" />
          </mxGeometry>
        </mxCell>
        <mxCell id="zWW6qGMwEGNfqiaWWx32-21" value="Received first card, then it will change to deal started&amp;nbsp;" style="shape=note;whiteSpace=wrap;html=1;backgroundOutline=1;darkOpacity=0.05;" vertex="1" parent="1">
          <mxGeometry x="70" y="250" width="170" height="100" as="geometry" />
        </mxCell>
        <mxCell id="zWW6qGMwEGNfqiaWWx32-24" style="edgeStyle=orthogonalEdgeStyle;rounded=0;orthogonalLoop=1;jettySize=auto;html=1;exitX=0;exitY=0.5;exitDx=0;exitDy=0;exitPerimeter=0;" edge="1" parent="1" source="zWW6qGMwEGNfqiaWWx32-23">
          <mxGeometry relative="1" as="geometry">
            <mxPoint x="390" y="400" as="targetPoint" />
          </mxGeometry>
        </mxCell>
        <mxCell id="zWW6qGMwEGNfqiaWWx32-23" value="Received banker the second card, then it will change to deal ended&amp;nbsp;" style="shape=note;whiteSpace=wrap;html=1;backgroundOutline=1;darkOpacity=0.05;" vertex="1" parent="1">
          <mxGeometry x="570" y="320" width="190" height="100" as="geometry" />
        </mxCell>
        <mxCell id="zWW6qGMwEGNfqiaWWx32-29" style="edgeStyle=orthogonalEdgeStyle;rounded=0;orthogonalLoop=1;jettySize=auto;html=1;exitX=0;exitY=0;exitDx=250;exitDy=65;exitPerimeter=0;" edge="1" parent="1" source="zWW6qGMwEGNfqiaWWx32-25">
          <mxGeometry relative="1" as="geometry">
            <mxPoint x="400" y="480" as="targetPoint" />
          </mxGeometry>
        </mxCell>
        <mxCell id="zWW6qGMwEGNfqiaWWx32-25" value="During this period, system can accept players to do interaction(hit, stand) one by one. After all players did their interaction, it will change to player_interactioned" style="shape=note;whiteSpace=wrap;html=1;backgroundOutline=1;darkOpacity=0.05;" vertex="1" parent="1">
          <mxGeometry x="20" y="430" width="250" height="100" as="geometry" />
        </mxCell>
        <mxCell id="zWW6qGMwEGNfqiaWWx32-30" style="edgeStyle=orthogonalEdgeStyle;rounded=0;orthogonalLoop=1;jettySize=auto;html=1;exitX=0.5;exitY=1;exitDx=0;exitDy=0;entryX=0.5;entryY=0;entryDx=0;entryDy=0;" edge="1" parent="1" source="zWW6qGMwEGNfqiaWWx32-26" target="zWW6qGMwEGNfqiaWWx32-27">
          <mxGeometry relative="1" as="geometry" />
        </mxCell>
        <mxCell id="zWW6qGMwEGNfqiaWWx32-26" value="player_interactioned" style="rounded=1;whiteSpace=wrap;html=1;" vertex="1" parent="1">
          <mxGeometry x="350" y="510" width="90" height="45" as="geometry" />
        </mxCell>
        <mxCell id="zWW6qGMwEGNfqiaWWx32-34" style="edgeStyle=orthogonalEdgeStyle;rounded=0;orthogonalLoop=1;jettySize=auto;html=1;exitX=0.5;exitY=1;exitDx=0;exitDy=0;entryX=0.5;entryY=0;entryDx=0;entryDy=0;" edge="1" parent="1" source="zWW6qGMwEGNfqiaWWx32-27" target="zWW6qGMwEGNfqiaWWx32-7">
          <mxGeometry relative="1" as="geometry" />
        </mxCell>
        <mxCell id="zWW6qGMwEGNfqiaWWx32-27" value="banker_interactioned" style="rounded=1;whiteSpace=wrap;html=1;" vertex="1" parent="1">
          <mxGeometry x="350" y="620" width="90" height="45" as="geometry" />
        </mxCell>
        <mxCell id="zWW6qGMwEGNfqiaWWx32-33" style="edgeStyle=orthogonalEdgeStyle;rounded=0;orthogonalLoop=1;jettySize=auto;html=1;exitX=0;exitY=0.5;exitDx=0;exitDy=0;exitPerimeter=0;" edge="1" parent="1" source="zWW6qGMwEGNfqiaWWx32-31">
          <mxGeometry relative="1" as="geometry">
            <mxPoint x="390" y="590" as="targetPoint" />
          </mxGeometry>
        </mxCell>
        <mxCell id="zWW6qGMwEGNfqiaWWx32-31" value="After all player interactions, the system will check if there is at least one player, not bust.&lt;br&gt;&lt;br&gt;Have player:&amp;nbsp; then the banker will follow the game rule to hit cards, after the banker hits the cards done, it will change to banker_interactioned. &lt;br&gt;If no player stays on the table, it changes to this state directly.&lt;br&gt;" style="shape=note;whiteSpace=wrap;html=1;backgroundOutline=1;darkOpacity=0.05;" vertex="1" parent="1">
          <mxGeometry x="510" y="500" width="340" height="110" as="geometry" />
        </mxCell>
        <mxCell id="zWW6qGMwEGNfqiaWWx32-36" style="edgeStyle=orthogonalEdgeStyle;rounded=0;orthogonalLoop=1;jettySize=auto;html=1;exitX=0;exitY=0.5;exitDx=0;exitDy=0;exitPerimeter=0;" edge="1" parent="1" source="zWW6qGMwEGNfqiaWWx32-35">
          <mxGeometry relative="1" as="geometry">
            <mxPoint x="390" y="790" as="targetPoint" />
          </mxGeometry>
        </mxCell>
        <mxCell id="zWW6qGMwEGNfqiaWWx32-35" value="After 2s, the system will change to closed state. Give 2s to let client handle animation." style="shape=note;whiteSpace=wrap;html=1;backgroundOutline=1;darkOpacity=0.05;size=26;" vertex="1" parent="1">
          <mxGeometry x="570" y="740" width="190" height="100" as="geometry" />
        </mxCell>
        <mxCell id="zWW6qGMwEGNfqiaWWx32-38" style="edgeStyle=orthogonalEdgeStyle;rounded=0;orthogonalLoop=1;jettySize=auto;html=1;exitX=0;exitY=0;exitDx=210;exitDy=65;exitPerimeter=0;" edge="1" parent="1" source="zWW6qGMwEGNfqiaWWx32-37">
          <mxGeometry relative="1" as="geometry">
            <mxPoint x="400" y="680" as="targetPoint" />
          </mxGeometry>
        </mxCell>
        <mxCell id="zWW6qGMwEGNfqiaWWx32-37" value="After the system calcuate all the result and save the result to database, then it will change to resulted" style="shape=note;whiteSpace=wrap;html=1;backgroundOutline=1;darkOpacity=0.05;" vertex="1" parent="1">
          <mxGeometry x="40" y="630" width="210" height="100" as="geometry" />
        </mxCell>
        <mxCell id="zWW6qGMwEGNfqiaWWx32-39" value="Game Flow state Machine" style="text;html=1;strokeColor=none;fillColor=none;align=center;verticalAlign=middle;whiteSpace=wrap;rounded=0;" vertex="1" parent="1">
          <mxGeometry x="340" y="20" width="60" height="30" as="geometry" />
        </mxCell>
      </root>
    </mxGraphModel>
  </diagram>
</mxfile>
